<?xml version="1.0" encoding="iso-8859-1"?>
<!-- Generator: Adobe Illustrator 19.0.0, SVG Export Plug-In . SVG Version: 6.00 Build 0)  -->
<svg version="1.1" id="Capa_1" xmlns="http://www.w3.org/2000/svg" xmlns:xlink="http://www.w3.org/1999/xlink" x="0px" y="0px"
	 viewBox="0 0 490.5 490.5" style="enable-background:new 0 0 490.5 490.5; fill: indigo;" xml:space="preserve">
<g>
	<g>
		<path d="M173.1,343.3h-17.7c-11.5,0-20.9,9.4-20.9,20.9s9.4,20.9,20.9,20.9h17.7c11.5,0,20.9-9.4,20.9-20.9
			C193.9,352.7,184.5,343.3,173.1,343.3z"/>
		<path d="M334.7,343.3H317c-11.5,0-20.9,9.4-20.9,20.9s9.4,20.9,20.9,20.9h17.7c11.5,0,20.9-9.4,20.9-20.9
			C355.5,352.7,346.1,343.3,334.7,343.3z"/>
		<path d="M469.1,50.3h-34.4V44c0-24-19.8-43.8-43.8-43.8H99C75,0.2,55.2,20,55.2,44v7.3H20.9C9.4,51.4,0,60.8,0,72.2v91.7
			c0,11.5,9.4,20.9,20.9,20.9c10.4,0,19.8-9.4,19.8-19.8V93.1h14.6V410c0,15.6,8.4,29.4,20.9,37.2v22.2c0,11.5,9.4,20.9,20.9,20.9
			s20.9-9.4,20.9-20.9v-15.6h254.4v15.6c0,11.5,9.4,20.9,20.9,20.9s19.8-9.4,20.9-20.9v-22.2c12.5-7.8,20.9-21.6,20.9-37.2V92h13.6
			v71.9c0,11.5,9.4,20.9,20.9,20.9s20.9-9.4,20.9-20.9V71.2C490,59.7,480.6,50.3,469.1,50.3z M99,413.2c-2.1,0-3.1-1-3.1-3.1v-87.6
			h298.2v87.6c0,2.1-1,3.1-3.1,3.1H99z M99,41h292c2.1,0,3.1,1,3.1,3.1v217.6l-87.6-65.9V164c0-11.5-9.4-20.9-20.9-20.9
			s-20.9,9.4-20.9,20.9v84.4c0,11.5,9.4,20.9,20.9,20.9s19.8-9.4,20.9-20.9v-2.3l46,34.6h-205l46.4-35.2v2.9
			c0,11.5,9.4,20.9,20.9,20.9c10.4,0,19.8-9.4,20.9-20.9V164c0-11.5-9.4-20.9-20.9-20.9s-20.9,9.4-20.9,20.9v31l-98,73.7V44.1
			C95.9,42,97,41,99,41z"/>
	</g>
</g>
<g>
</g>
<g>
</g>
<g>
</g>
<g>
</g>
<g>
</g>
<g>
</g>
<g>
</g>
<g>
</g>
<g>
</g>
<g>
</g>
<g>
</g>
<g>
</g>
<g>
</g>
<g>
</g>
<g>
</g>
</svg>
