<?xml version="1.0" ?><svg width="50px" height="50px" style="fill: indigo;" viewBox="0 0 50 50" xmlns="http://www.w3.org/2000/svg"><g id="Solid"><path d="M48,26v3a2.00229,2.00229,0,0,1-2,2H4a2.00229,2.00229,0,0,1-2-2V26a2.00229,2.00229,0,0,1,2-2H46A2.00229,2.00229,0,0,1,48,26ZM4.346,33H45.654L44.20117,45.35059A3.002,3.002,0,0,1,41.22168,48H8.77832a3.002,3.002,0,0,1-2.97949-2.64844ZM34,43a1,1,0,0,0,2,0V36a1,1,0,0,0-2,0ZM24,43a1,1,0,0,0,2,0V36a1,1,0,0,0-2,0ZM14,43a1,1,0,0,0,2,0V36a1,1,0,0,0-2,0ZM8.78119,14.05518A5.99537,5.99537,0,0,1,6,9V6A.99974.99974,0,0,1,7,5H8a6.00657,6.00657,0,0,1,6,6v2.059A9.01045,9.01045,0,0,1,22,22H4A9.00561,9.00561,0,0,1,8.78119,14.05518ZM14,15a1,1,0,0,0,0,2,2.99742,2.99742,0,0,1,2.9043,2.24951,1.00037,1.00037,0,0,0,1.9375-.499A4.99842,4.99842,0,0,0,14,15Zm4-2.78571V9a7.00818,7.00818,0,0,1,7-7,7.00847,7.00847,0,0,1,7,7V22H24c0-.33752-.02075-.6701-.05066-1H27a1,1,0,0,0,0-2H23.57355A11.03566,11.03566,0,0,0,18,12.21429ZM22,10a.99974.99974,0,0,0,1,1h4a1,1,0,0,0,0-2H23A.99974.99974,0,0,0,22,10Zm2,5a.99974.99974,0,0,0,1,1h2a1,1,0,0,0,0-2H25A.99974.99974,0,0,0,24,15Zm22,7H34V14h9a3.00328,3.00328,0,0,1,3,3Zm-4-5a.99974.99974,0,0,0-1-1H37a1,1,0,0,0,0,2h4A.99974.99974,0,0,0,42,17Z"/></g></svg>