<?xml version="1.0" encoding="utf-8"?>

<svg version="1.1" id="Icons" xmlns="http://www.w3.org/2000/svg" xmlns:xlink="http://www.w3.org/1999/xlink" x="0px" y="0px"
	 viewBox="0 0 32 32" style="enable-background:new 0 0 32 32; fill: indigo;" xml:space="preserve">
<style type="text/css">
	.st0{fill:none;stroke:#000000;stroke-width:2;stroke-linecap:round;stroke-linejoin:round;stroke-miterlimit:10;}
</style>
<g>
	<path d="M28,13h-1V2c0.6,0,1-0.4,1-1s-0.4-1-1-1h-1h-6h-1c-0.6,0-1,0.4-1,1s0.4,1,1,1v11h-1c-1.7,0-3,1.3-3,3v3h16v-3
		C31,14.3,29.7,13,28,13z M21,2h4v11h-4V2z"/>
	<path d="M15,29c0,1.7,1.3,3,3,3h10c1.7,0,3-1.3,3-3v-8H15V29z"/>
	<path d="M0,20v9c0,1.7,1.3,3,3,3h2V17H3C1.3,17,0,18.3,0,20z"/>
	<rect x="7" y="17" width="6" height="15"/>
	<path d="M12,11H8c-0.6,0-1,0.4-1,1v3h2v-2h2v2h2v-3C13,11.4,12.6,11,12,11z"/>
</g>
</svg>
